<svg width="20" height="25" viewBox="0 0 20 25" fill="none" xmlns="http://www.w3.org/2000/svg">
<g id="Group">
<path id="Vector" d="M15.0442 0.952835C14.9948 0.897511 13.2113 0.974673 11.6593 2.65912C10.1074 4.34211 10.3461 6.2726 10.3811 6.3221C10.416 6.3716 12.594 6.44876 13.9844 4.49061C15.3747 2.53246 15.0937 1.00961 15.0442 0.952835ZM19.869 18.0346C19.7991 17.8948 16.4841 16.2381 16.7928 13.0526C17.1014 9.8657 19.2313 8.99218 19.2648 8.89754C19.2983 8.80291 18.3957 7.7474 17.4392 7.2131C16.7369 6.83639 15.9596 6.62057 15.1636 6.58125C15.0064 6.57688 14.4604 6.44294 13.338 6.75013C12.5984 6.95249 10.9314 7.60764 10.4728 7.63384C10.0127 7.66005 8.64422 6.87388 7.17233 6.66569C6.23038 6.4837 5.23165 6.85641 4.51682 7.14321C3.80344 7.42857 2.44657 8.24094 1.49733 10.4C0.548104 12.5576 1.04456 15.976 1.39979 17.0388C1.75502 18.1001 2.30971 19.8399 3.25312 21.1094C4.0917 22.542 5.20399 23.5364 5.66842 23.8741C6.13284 24.2119 7.44313 24.4361 8.35159 23.9717C9.08244 23.5233 10.4015 23.2656 10.9227 23.2845C11.4424 23.3034 12.4674 23.5087 13.517 24.0692C14.3483 24.356 15.1345 24.2366 15.9221 23.9163C16.7098 23.5946 17.8497 22.3746 19.1804 19.901C19.6856 18.7509 19.9156 18.1292 19.869 18.0346Z" fill="black"/>
<path id="Vector_2" d="M15.0442 0.952835C14.9948 0.897511 13.2113 0.974673 11.6593 2.65912C10.1074 4.34211 10.3461 6.2726 10.3811 6.3221C10.416 6.3716 12.594 6.44876 13.9844 4.49061C15.3747 2.53246 15.0937 1.00961 15.0442 0.952835ZM19.869 18.0346C19.7991 17.8948 16.4841 16.2381 16.7928 13.0526C17.1014 9.8657 19.2313 8.99218 19.2648 8.89754C19.2983 8.80291 18.3957 7.7474 17.4392 7.2131C16.7369 6.83639 15.9596 6.62057 15.1636 6.58125C15.0064 6.57688 14.4604 6.44294 13.338 6.75013C12.5984 6.95249 10.9314 7.60764 10.4728 7.63384C10.0127 7.66005 8.64422 6.87388 7.17233 6.66569C6.23038 6.4837 5.23165 6.85641 4.51682 7.14321C3.80344 7.42857 2.44657 8.24094 1.49733 10.4C0.548104 12.5576 1.04456 15.976 1.39979 17.0388C1.75502 18.1001 2.30971 19.8399 3.25312 21.1094C4.0917 22.542 5.20399 23.5364 5.66842 23.8741C6.13284 24.2119 7.44313 24.4361 8.35159 23.9717C9.08244 23.5233 10.4015 23.2656 10.9227 23.2845C11.4424 23.3034 12.4674 23.5087 13.517 24.0692C14.3483 24.356 15.1345 24.2366 15.9221 23.9163C16.7098 23.5946 17.8497 22.3746 19.1804 19.901C19.6856 18.7509 19.9156 18.1292 19.869 18.0346Z" fill="black"/>
</g>
</svg>
