<svg width="25" height="25" viewBox="0 0 25 25" fill="none" xmlns="http://www.w3.org/2000/svg">
<g id="flat-color-icons:google">
<path id="Vector" d="M21.9877 10.6874H21.2059V10.6471H12.4706V14.5294H17.9559C17.1556 16.7894 15.0053 18.4118 12.4706 18.4118C9.25455 18.4118 6.64706 15.8043 6.64706 12.5883C6.64706 9.37221 9.25455 6.76472 12.4706 6.76472C13.9551 6.76472 15.3057 7.32475 16.334 8.23953L19.0793 5.49422C17.3459 3.87868 15.0271 2.88237 12.4706 2.88237C7.11052 2.88237 2.76471 7.22818 2.76471 12.5883C2.76471 17.9483 7.11052 22.2941 12.4706 22.2941C17.8307 22.2941 22.1765 17.9483 22.1765 12.5883C22.1765 11.9375 22.1095 11.3022 21.9877 10.6874Z" fill="#FFC107"/>
<path id="Vector_2" d="M3.88379 8.07065L7.07266 10.4093C7.93551 8.27302 10.0252 6.76472 12.4706 6.76472C13.9551 6.76472 15.3057 7.32475 16.334 8.23953L19.0793 5.49422C17.3458 3.87868 15.0271 2.88237 12.4706 2.88237C8.74255 2.88237 5.50952 4.98709 3.88379 8.07065Z" fill="#FF3D00"/>
<path id="Vector_3" d="M12.4706 22.2941C14.9776 22.2941 17.2556 21.3347 18.9779 19.7745L15.9739 17.2325C14.9667 17.9985 13.736 18.4128 12.4706 18.4118C9.94609 18.4118 7.80254 16.8021 6.99501 14.5556L3.82993 16.9943C5.43625 20.1375 8.6984 22.2941 12.4706 22.2941Z" fill="#4CAF50"/>
<path id="Vector_4" d="M21.9877 10.6874H21.2059V10.6471H12.4706V14.5294H17.9559C17.5731 15.605 16.8835 16.5449 15.9725 17.233L15.9739 17.232L18.9779 19.774C18.7653 19.9672 22.1765 17.4412 22.1765 12.5883C22.1765 11.9375 22.1095 11.3022 21.9877 10.6874Z" fill="#1976D2"/>
</g>
</svg>
