<svg width="16" height="12" viewBox="0 0 16 12" fill="none" xmlns="http://www.w3.org/2000/svg">
<path id="Vector" d="M15.8586 11.0391L1.7833 0.0822657C1.74469 0.0514872 1.70038 0.0285818 1.65288 0.0148574C1.60539 0.00113296 1.55564 -0.00314169 1.50649 0.00227748C1.45733 0.00769665 1.40973 0.0227035 1.3664 0.0464412C1.32307 0.070179 1.28486 0.102183 1.25395 0.140625L1.01858 0.43336C0.987594 0.471815 0.964531 0.515977 0.950707 0.563317C0.936883 0.610658 0.93257 0.660248 0.938013 0.70925C0.943457 0.758253 0.958551 0.805705 0.982431 0.848892C1.00631 0.89208 1.03851 0.930154 1.07718 0.960938L15.1524 11.9177C15.1911 11.9485 15.2354 11.9714 15.2829 11.9851C15.3304 11.9989 15.3801 12.0031 15.4293 11.9977C15.4784 11.9923 15.526 11.9773 15.5693 11.9536C15.6127 11.9298 15.6509 11.8978 15.6818 11.8594L15.9172 11.5666C15.9482 11.5282 15.9712 11.484 15.985 11.4367C15.9989 11.3893 16.0032 11.3398 15.9977 11.2908C15.9923 11.2417 15.9772 11.1943 15.9533 11.1511C15.9294 11.1079 15.8972 11.0698 15.8586 11.0391ZM7.92158 3.43289L11.0942 5.90273C11.0419 4.49789 9.89141 3.375 8.46787 3.375C8.28425 3.37534 8.10116 3.39474 7.92158 3.43289ZM9.01417 8.56734L5.84159 6.0975C5.89408 7.50211 7.04458 8.625 8.46787 8.625C8.65148 8.62461 8.83456 8.60529 9.01417 8.56734ZM8.46787 2.625C10.7898 2.625 12.9185 3.91406 14.0681 6C13.7863 6.51337 13.4381 6.98773 13.0324 7.41094L13.9207 8.10234C14.4153 7.57551 14.8343 6.9831 15.1659 6.34195C15.2197 6.2359 15.2478 6.11872 15.2478 5.99988C15.2478 5.88104 15.2197 5.76387 15.1659 5.65781C13.8883 3.17789 11.3613 1.5 8.46787 1.5C7.60406 1.5 6.78002 1.66406 6.00517 1.94086L7.09754 2.79141C7.54333 2.69063 7.99995 2.625 8.46787 2.625ZM8.46787 9.375C6.14593 9.375 4.01745 8.08594 2.86766 6C3.14982 5.48664 3.4984 5.01236 3.90448 4.5893L3.01618 3.89789C2.5217 4.42464 2.10277 5.01698 1.7713 5.65805C1.71745 5.7641 1.6894 5.88128 1.6894 6.00012C1.6894 6.11896 1.71745 6.23613 1.7713 6.34219C3.04772 8.82211 5.57468 10.5 8.46787 10.5C9.33169 10.5 10.1557 10.3348 10.9306 10.0591L9.83821 9.20883C9.39242 9.30937 8.93603 9.375 8.46787 9.375Z" fill="#bcdb7e"/>
</svg>
